<?xml version="1.0" encoding="UTF-8"?>
<svg width="32px" height="32px" viewBox="0 0 32 32" version="1.1" xmlns="http://www.w3.org/2000/svg">
    <g id="diz" stroke="none" stroke-width="1" fill="none" fill-rule="evenodd">
        <g id="Artboard-5" fill-rule="nonzero" fill="#596074">
            <path d="M1.72997005,15.804092 L1.72997005,30.3333333 L8.82060782,30.3333333 L8.82060782,21.176008 L13.9581545,21.176008 L13.9581545,30.3333333 L30.2700629,30.3333333 L30.2700629,15.8040593 C31.3270143,14.9217182 32,13.5997602 32,12.1244824 L32,7.80546258 L27.7544434,1 L4.37287556,1 L0,7.79709017 L0,12.1244824 C0,13.5997929 0.673018617,14.921751 1.72997005,15.804092 Z M9.33333333,3.66666667 L7.54266553,8.81475785 L7.54266553,11.8397758 L7.54266553,12.968044 C7.54266553,13.3973136 7.45120852,13.8031717 7.28941421,14.163847 C6.89036274,15.0534878 6.0611669,15.6666667 5.1046661,15.6666667 C4.81853101,15.6666667 4.54394383,15.6113674 4.28862376,15.5106805 C3.34450455,15.1382822 2.66666667,14.1393417 2.66666667,12.9680782 L2.66666667,11.83981 L2.66666667,9.12485047 L5.8170551,3.66670084 L9.33333333,3.66670084 L9.33333333,3.66666667 Z M14.6666667,3.66666667 L14.6666667,11.8397867 L14.6666667,12.9680517 C14.6666667,13.3973201 14.5666316,13.803177 14.3896621,14.1638513 C13.9531825,15.0534896 13.0462139,15.6666667 12,15.6666667 C10.9537861,15.6666667 10.0468175,15.0534896 9.61033785,14.1638513 C9.43336837,13.803177 9.33333333,13.3972859 9.33333333,12.9680517 L9.33333333,11.8397867 L9.33333333,9.24671161 L11.4562917,3.66670084 L14.6666667,3.66666667 L14.6666667,3.66666667 Z M20.5437083,3.66666667 L22.6666667,9.24671161 L22.6666667,11.8397867 L22.6666667,12.9680517 C22.6666667,13.3973201 22.5666316,13.803177 22.3896621,14.1638513 C21.9531825,15.0534896 21.0462139,15.6666667 20,15.6666667 C18.9537524,15.6666667 18.0468175,15.0534896 17.6103379,14.1638513 C17.4333684,13.803177 17.3333333,13.3972859 17.3333333,12.9680517 L17.3333333,11.8397867 L17.3333333,3.66666667 L20.5437083,3.66666667 Z M26.2833421,3.66666667 L29.3333333,9.11608551 L29.3333333,11.8397867 L29.3333333,12.9680517 C29.3333333,14.1393119 28.6554923,15.1382837 27.7113996,15.5106467 C27.4560784,15.6113334 27.1815208,15.6666667 26.8953226,15.6666667 C25.9388174,15.6666667 25.1096486,15.0534896 24.7105953,14.1638513 C24.5488002,13.803177 24.4573428,13.3972859 24.4573428,12.9680517 L24.4573428,11.8397867 L24.4573428,8.81477737 L22.6666667,3.66673502 L26.2833421,3.66673502 L26.2833421,3.66666667 L26.2833421,3.66666667 Z M28,29 L16.1970789,29 L16.1970789,19.5451003 L6.60510723,19.5451003 L6.60510723,29 L4,29 L4,17.377497 C4.28171489,17.4303094 4.57183919,17.4581 4.86817198,17.4581 C6.35817966,17.4581 7.69254774,16.7607336 8.5787868,15.6666667 C9.46502585,16.7606999 10.7993939,17.4581 12.2893688,17.4581 C13.7793764,17.4581 15.1137445,16.7607336 15.9999836,15.6666667 C16.8862226,16.7606999 18.2206236,17.4581 19.7105984,17.4581 C21.2005732,17.4581 22.5349742,16.7607674 23.4212132,15.6666667 C24.3074523,16.7606999 25.6418203,17.4581 27.1317952,17.4581 C27.428128,17.4581 27.7182523,17.4303431 28,17.377497 L28,29 L28,29 Z" id="Shape"></path>
        </g>
    </g>
</svg>